M48
INCH,TZ
T1C0.0157
T2C0.0315
T3C0.0394
T4C0.0433
T5C0.0472
T6C0.0591
%
G90
G05
T1
X49685Y-30000
X52756Y-28661
X53622Y-29685
X56929Y-29843
X57165Y-31024
X57638Y-29606
X57638Y-32913
X58268Y-30709
X58346Y-29449
X59843Y-28425
X60945Y-32441
X63937Y-28898
X67795Y-28504
T2
X61081Y-29444
X61081Y-31366
T3
X50500Y-29213
X50500Y-31772
X64370Y-30315
X65370Y-30315
X66370Y-30315
X67370Y-30315
X68370Y-30315
X69370Y-30315
T4
X65394Y-31772
X65394Y-33543
X67953Y-31772
X67953Y-33543
T5
X35614Y-31375
X46086Y-30883
X46086Y-31867
T6
X53199Y-34130
X62699Y-34130
T0
M30
