G04 #@! TF.GenerationSoftware,KiCad,Pcbnew,(5.1.9)-1*
G04 #@! TF.CreationDate,2021-06-09T23:23:04+02:00*
G04 #@! TF.ProjectId,window_sensor,77696e64-6f77-45f7-9365-6e736f722e6b,rev?*
G04 #@! TF.SameCoordinates,Original*
G04 #@! TF.FileFunction,Legend,Top*
G04 #@! TF.FilePolarity,Positive*
%FSLAX46Y46*%
G04 Gerber Fmt 4.6, Leading zero omitted, Abs format (unit mm)*
G04 Created by KiCad (PCBNEW (5.1.9)-1) date 2021-06-09 23:23:04*
%MOMM*%
%LPD*%
G01*
G04 APERTURE LIST*
%ADD10C,0.120000*%
%ADD11C,0.150000*%
G04 APERTURE END LIST*
D10*
X174930000Y-75670000D02*
X174930000Y-78330000D01*
X174930000Y-75670000D02*
X162170000Y-75670000D01*
X162170000Y-75670000D02*
X162170000Y-78330000D01*
X174930000Y-78330000D02*
X162170000Y-78330000D01*
X177530000Y-78330000D02*
X176200000Y-78330000D01*
X177530000Y-77000000D02*
X177530000Y-78330000D01*
X97759000Y-87692500D02*
X89759000Y-87692500D01*
X89759000Y-87692500D02*
X89759000Y-81692500D01*
X89759000Y-77692500D02*
X89759000Y-71692500D01*
X89759000Y-71692500D02*
X97759000Y-71692500D01*
X117759000Y-71692500D02*
X117759000Y-76692500D01*
X117759000Y-87692500D02*
X117759000Y-82692500D01*
X113759000Y-79692500D02*
G75*
G03*
X113759000Y-79692500I-10000000J0D01*
G01*
X117759000Y-71692500D02*
X109759000Y-71692500D01*
X109759000Y-87692500D02*
X117759000Y-87692500D01*
X93759000Y-84692500D02*
X91759000Y-84692500D01*
X116759000Y-84692500D02*
X114759000Y-84692500D01*
X115759000Y-85692500D02*
X115759000Y-83692500D01*
X120262742Y-72022500D02*
X120737258Y-72022500D01*
X120262742Y-70977500D02*
X120737258Y-70977500D01*
X157671500Y-74029000D02*
X157671500Y-80429000D01*
X152621500Y-74029000D02*
X152621500Y-80429000D01*
X152621500Y-80429000D02*
G75*
G03*
X157671500Y-80429000I2525000J0D01*
G01*
X152621500Y-74029000D02*
G75*
G02*
X157671500Y-74029000I2525000J0D01*
G01*
D11*
X150125000Y-80625000D02*
X150125000Y-80400000D01*
X142875000Y-80625000D02*
X142875000Y-80300000D01*
X142875000Y-73375000D02*
X142875000Y-73700000D01*
X150125000Y-73375000D02*
X150125000Y-73700000D01*
X150125000Y-80625000D02*
X149800000Y-80625000D01*
X150125000Y-73375000D02*
X149800000Y-73375000D01*
X142875000Y-73375000D02*
X143200000Y-73375000D01*
X142875000Y-80625000D02*
X143200000Y-80625000D01*
X150125000Y-80400000D02*
X151550000Y-80400000D01*
D10*
X171600000Y-79700000D02*
X167100000Y-79700000D01*
X172850000Y-83700000D02*
X172850000Y-82200000D01*
X167100000Y-86200000D02*
X171600000Y-86200000D01*
X165850000Y-82200000D02*
X165850000Y-83700000D01*
X136876000Y-86689000D02*
G75*
G03*
X136876000Y-86689000I-1750000J0D01*
G01*
X161006000Y-86689000D02*
G75*
G03*
X161006000Y-86689000I-1750000J0D01*
G01*
X138947500Y-76342258D02*
X138947500Y-75867742D01*
X139992500Y-76342258D02*
X139992500Y-75867742D01*
X138947500Y-79835258D02*
X138947500Y-79360742D01*
X139992500Y-79835258D02*
X139992500Y-79360742D01*
X175972500Y-84662258D02*
X175972500Y-84187742D01*
X177017500Y-84662258D02*
X177017500Y-84187742D01*
X126502742Y-84095500D02*
X126977258Y-84095500D01*
X126502742Y-85140500D02*
X126977258Y-85140500D01*
X130533258Y-85140500D02*
X130058742Y-85140500D01*
X130533258Y-84095500D02*
X130058742Y-84095500D01*
X160022500Y-82937742D02*
X160022500Y-83412258D01*
X158977500Y-82937742D02*
X158977500Y-83412258D01*
X162477500Y-83062258D02*
X162477500Y-82587742D01*
X163522500Y-83062258D02*
X163522500Y-82587742D01*
X149412258Y-84127500D02*
X148937742Y-84127500D01*
X149412258Y-83082500D02*
X148937742Y-83082500D01*
X122045000Y-84035000D02*
X122045000Y-83105000D01*
X122045000Y-80875000D02*
X122045000Y-81805000D01*
X122045000Y-80875000D02*
X119885000Y-80875000D01*
X122045000Y-84035000D02*
X120585000Y-84035000D01*
X175760000Y-79815000D02*
X175760000Y-82100000D01*
X175760000Y-82100000D02*
X177230000Y-82100000D01*
X177230000Y-82100000D02*
X177230000Y-79815000D01*
X121230000Y-75000000D02*
X121230000Y-75660000D01*
X121230000Y-73340000D02*
X121230000Y-74000000D01*
X121230000Y-73340000D02*
X119200000Y-73340000D01*
X119820000Y-75660000D02*
X121230000Y-75660000D01*
X159081500Y-75504580D02*
X159081500Y-75223420D01*
X160101500Y-75504580D02*
X160101500Y-75223420D01*
X160101500Y-78753420D02*
X160101500Y-79034580D01*
X159081500Y-78753420D02*
X159081500Y-79034580D01*
X134370000Y-77450000D02*
G75*
G03*
X134370000Y-77450000I-6100000J0D01*
G01*
D11*
X178422380Y-77333333D02*
X179136666Y-77333333D01*
X179279523Y-77380952D01*
X179374761Y-77476190D01*
X179422380Y-77619047D01*
X179422380Y-77714285D01*
X179422380Y-76333333D02*
X179422380Y-76904761D01*
X179422380Y-76619047D02*
X178422380Y-76619047D01*
X178565238Y-76714285D01*
X178660476Y-76809523D01*
X178708095Y-76904761D01*
X113973285Y-89621071D02*
X114116142Y-89668690D01*
X114163761Y-89716309D01*
X114211380Y-89811547D01*
X114211380Y-89954404D01*
X114163761Y-90049642D01*
X114116142Y-90097261D01*
X114020904Y-90144880D01*
X113639952Y-90144880D01*
X113639952Y-89144880D01*
X113973285Y-89144880D01*
X114068523Y-89192500D01*
X114116142Y-89240119D01*
X114163761Y-89335357D01*
X114163761Y-89430595D01*
X114116142Y-89525833D01*
X114068523Y-89573452D01*
X113973285Y-89621071D01*
X113639952Y-89621071D01*
X114497095Y-89144880D02*
X115068523Y-89144880D01*
X114782809Y-90144880D02*
X114782809Y-89144880D01*
X115925666Y-90144880D02*
X115354238Y-90144880D01*
X115639952Y-90144880D02*
X115639952Y-89144880D01*
X115544714Y-89287738D01*
X115449476Y-89382976D01*
X115354238Y-89430595D01*
X120333333Y-70522380D02*
X120000000Y-70046190D01*
X119761904Y-70522380D02*
X119761904Y-69522380D01*
X120142857Y-69522380D01*
X120238095Y-69570000D01*
X120285714Y-69617619D01*
X120333333Y-69712857D01*
X120333333Y-69855714D01*
X120285714Y-69950952D01*
X120238095Y-69998571D01*
X120142857Y-70046190D01*
X119761904Y-70046190D01*
X120809523Y-70522380D02*
X121000000Y-70522380D01*
X121095238Y-70474761D01*
X121142857Y-70427142D01*
X121238095Y-70284285D01*
X121285714Y-70093809D01*
X121285714Y-69712857D01*
X121238095Y-69617619D01*
X121190476Y-69570000D01*
X121095238Y-69522380D01*
X120904761Y-69522380D01*
X120809523Y-69570000D01*
X120761904Y-69617619D01*
X120714285Y-69712857D01*
X120714285Y-69950952D01*
X120761904Y-70046190D01*
X120809523Y-70093809D01*
X120904761Y-70141428D01*
X121095238Y-70141428D01*
X121190476Y-70093809D01*
X121238095Y-70046190D01*
X121285714Y-69950952D01*
X158480309Y-72660190D02*
X158480309Y-73136380D01*
X158146976Y-72136380D02*
X158480309Y-72660190D01*
X158813642Y-72136380D01*
X159670785Y-73136380D02*
X159099357Y-73136380D01*
X159385071Y-73136380D02*
X159385071Y-72136380D01*
X159289833Y-72279238D01*
X159194595Y-72374476D01*
X159099357Y-72422095D01*
X145738095Y-82502380D02*
X145738095Y-83311904D01*
X145785714Y-83407142D01*
X145833333Y-83454761D01*
X145928571Y-83502380D01*
X146119047Y-83502380D01*
X146214285Y-83454761D01*
X146261904Y-83407142D01*
X146309523Y-83311904D01*
X146309523Y-82502380D01*
X147309523Y-83502380D02*
X146738095Y-83502380D01*
X147023809Y-83502380D02*
X147023809Y-82502380D01*
X146928571Y-82645238D01*
X146833333Y-82740476D01*
X146738095Y-82788095D01*
X168016666Y-87604761D02*
X168159523Y-87652380D01*
X168397619Y-87652380D01*
X168492857Y-87604761D01*
X168540476Y-87557142D01*
X168588095Y-87461904D01*
X168588095Y-87366666D01*
X168540476Y-87271428D01*
X168492857Y-87223809D01*
X168397619Y-87176190D01*
X168207142Y-87128571D01*
X168111904Y-87080952D01*
X168064285Y-87033333D01*
X168016666Y-86938095D01*
X168016666Y-86842857D01*
X168064285Y-86747619D01*
X168111904Y-86700000D01*
X168207142Y-86652380D01*
X168445238Y-86652380D01*
X168588095Y-86700000D01*
X168921428Y-86652380D02*
X169159523Y-87652380D01*
X169350000Y-86938095D01*
X169540476Y-87652380D01*
X169778571Y-86652380D01*
X170111904Y-86747619D02*
X170159523Y-86700000D01*
X170254761Y-86652380D01*
X170492857Y-86652380D01*
X170588095Y-86700000D01*
X170635714Y-86747619D01*
X170683333Y-86842857D01*
X170683333Y-86938095D01*
X170635714Y-87080952D01*
X170064285Y-87652380D01*
X170683333Y-87652380D01*
X138015523Y-87141380D02*
X137682190Y-86665190D01*
X137444095Y-87141380D02*
X137444095Y-86141380D01*
X137825047Y-86141380D01*
X137920285Y-86189000D01*
X137967904Y-86236619D01*
X138015523Y-86331857D01*
X138015523Y-86474714D01*
X137967904Y-86569952D01*
X137920285Y-86617571D01*
X137825047Y-86665190D01*
X137444095Y-86665190D01*
X138444095Y-86617571D02*
X138777428Y-86617571D01*
X138920285Y-87141380D02*
X138444095Y-87141380D01*
X138444095Y-86141380D01*
X138920285Y-86141380D01*
X139348857Y-86617571D02*
X139682190Y-86617571D01*
X139825047Y-87141380D02*
X139348857Y-87141380D01*
X139348857Y-86141380D01*
X139825047Y-86141380D01*
X140253619Y-87141380D02*
X140253619Y-86141380D01*
X140491714Y-86141380D01*
X140634571Y-86189000D01*
X140729809Y-86284238D01*
X140777428Y-86379476D01*
X140825047Y-86569952D01*
X140825047Y-86712809D01*
X140777428Y-86903285D01*
X140729809Y-86998523D01*
X140634571Y-87093761D01*
X140491714Y-87141380D01*
X140253619Y-87141380D01*
X141253619Y-86760428D02*
X142015523Y-86760428D01*
X143015523Y-87141380D02*
X142444095Y-87141380D01*
X142729809Y-87141380D02*
X142729809Y-86141380D01*
X142634571Y-86284238D01*
X142539333Y-86379476D01*
X142444095Y-86427095D01*
X151985523Y-87141380D02*
X151652190Y-86665190D01*
X151414095Y-87141380D02*
X151414095Y-86141380D01*
X151795047Y-86141380D01*
X151890285Y-86189000D01*
X151937904Y-86236619D01*
X151985523Y-86331857D01*
X151985523Y-86474714D01*
X151937904Y-86569952D01*
X151890285Y-86617571D01*
X151795047Y-86665190D01*
X151414095Y-86665190D01*
X152414095Y-86617571D02*
X152747428Y-86617571D01*
X152890285Y-87141380D02*
X152414095Y-87141380D01*
X152414095Y-86141380D01*
X152890285Y-86141380D01*
X153318857Y-86617571D02*
X153652190Y-86617571D01*
X153795047Y-87141380D02*
X153318857Y-87141380D01*
X153318857Y-86141380D01*
X153795047Y-86141380D01*
X154223619Y-87141380D02*
X154223619Y-86141380D01*
X154461714Y-86141380D01*
X154604571Y-86189000D01*
X154699809Y-86284238D01*
X154747428Y-86379476D01*
X154795047Y-86569952D01*
X154795047Y-86712809D01*
X154747428Y-86903285D01*
X154699809Y-86998523D01*
X154604571Y-87093761D01*
X154461714Y-87141380D01*
X154223619Y-87141380D01*
X155223619Y-86760428D02*
X155985523Y-86760428D01*
X155604571Y-87141380D02*
X155604571Y-86379476D01*
X156985523Y-87141380D02*
X156414095Y-87141380D01*
X156699809Y-87141380D02*
X156699809Y-86141380D01*
X156604571Y-86284238D01*
X156509333Y-86379476D01*
X156414095Y-86427095D01*
X138492380Y-76271666D02*
X138016190Y-76605000D01*
X138492380Y-76843095D02*
X137492380Y-76843095D01*
X137492380Y-76462142D01*
X137540000Y-76366904D01*
X137587619Y-76319285D01*
X137682857Y-76271666D01*
X137825714Y-76271666D01*
X137920952Y-76319285D01*
X137968571Y-76366904D01*
X138016190Y-76462142D01*
X138016190Y-76843095D01*
X137920952Y-75700238D02*
X137873333Y-75795476D01*
X137825714Y-75843095D01*
X137730476Y-75890714D01*
X137682857Y-75890714D01*
X137587619Y-75843095D01*
X137540000Y-75795476D01*
X137492380Y-75700238D01*
X137492380Y-75509761D01*
X137540000Y-75414523D01*
X137587619Y-75366904D01*
X137682857Y-75319285D01*
X137730476Y-75319285D01*
X137825714Y-75366904D01*
X137873333Y-75414523D01*
X137920952Y-75509761D01*
X137920952Y-75700238D01*
X137968571Y-75795476D01*
X138016190Y-75843095D01*
X138111428Y-75890714D01*
X138301904Y-75890714D01*
X138397142Y-75843095D01*
X138444761Y-75795476D01*
X138492380Y-75700238D01*
X138492380Y-75509761D01*
X138444761Y-75414523D01*
X138397142Y-75366904D01*
X138301904Y-75319285D01*
X138111428Y-75319285D01*
X138016190Y-75366904D01*
X137968571Y-75414523D01*
X137920952Y-75509761D01*
X138492380Y-79764666D02*
X138016190Y-80098000D01*
X138492380Y-80336095D02*
X137492380Y-80336095D01*
X137492380Y-79955142D01*
X137540000Y-79859904D01*
X137587619Y-79812285D01*
X137682857Y-79764666D01*
X137825714Y-79764666D01*
X137920952Y-79812285D01*
X137968571Y-79859904D01*
X138016190Y-79955142D01*
X138016190Y-80336095D01*
X137492380Y-79431333D02*
X137492380Y-78764666D01*
X138492380Y-79193238D01*
X175517380Y-84591666D02*
X175041190Y-84925000D01*
X175517380Y-85163095D02*
X174517380Y-85163095D01*
X174517380Y-84782142D01*
X174565000Y-84686904D01*
X174612619Y-84639285D01*
X174707857Y-84591666D01*
X174850714Y-84591666D01*
X174945952Y-84639285D01*
X174993571Y-84686904D01*
X175041190Y-84782142D01*
X175041190Y-85163095D01*
X174517380Y-83734523D02*
X174517380Y-83925000D01*
X174565000Y-84020238D01*
X174612619Y-84067857D01*
X174755476Y-84163095D01*
X174945952Y-84210714D01*
X175326904Y-84210714D01*
X175422142Y-84163095D01*
X175469761Y-84115476D01*
X175517380Y-84020238D01*
X175517380Y-83829761D01*
X175469761Y-83734523D01*
X175422142Y-83686904D01*
X175326904Y-83639285D01*
X175088809Y-83639285D01*
X174993571Y-83686904D01*
X174945952Y-83734523D01*
X174898333Y-83829761D01*
X174898333Y-84020238D01*
X174945952Y-84115476D01*
X174993571Y-84163095D01*
X175088809Y-84210714D01*
X124652380Y-85165666D02*
X124176190Y-85499000D01*
X124652380Y-85737095D02*
X123652380Y-85737095D01*
X123652380Y-85356142D01*
X123700000Y-85260904D01*
X123747619Y-85213285D01*
X123842857Y-85165666D01*
X123985714Y-85165666D01*
X124080952Y-85213285D01*
X124128571Y-85260904D01*
X124176190Y-85356142D01*
X124176190Y-85737095D01*
X123652380Y-84260904D02*
X123652380Y-84737095D01*
X124128571Y-84784714D01*
X124080952Y-84737095D01*
X124033333Y-84641857D01*
X124033333Y-84403761D01*
X124080952Y-84308523D01*
X124128571Y-84260904D01*
X124223809Y-84213285D01*
X124461904Y-84213285D01*
X124557142Y-84260904D01*
X124604761Y-84308523D01*
X124652380Y-84403761D01*
X124652380Y-84641857D01*
X124604761Y-84737095D01*
X124557142Y-84784714D01*
X133288380Y-85102166D02*
X132812190Y-85435500D01*
X133288380Y-85673595D02*
X132288380Y-85673595D01*
X132288380Y-85292642D01*
X132336000Y-85197404D01*
X132383619Y-85149785D01*
X132478857Y-85102166D01*
X132621714Y-85102166D01*
X132716952Y-85149785D01*
X132764571Y-85197404D01*
X132812190Y-85292642D01*
X132812190Y-85673595D01*
X132621714Y-84245023D02*
X133288380Y-84245023D01*
X132240761Y-84483119D02*
X132955047Y-84721214D01*
X132955047Y-84102166D01*
X161952380Y-83341666D02*
X161476190Y-83675000D01*
X161952380Y-83913095D02*
X160952380Y-83913095D01*
X160952380Y-83532142D01*
X161000000Y-83436904D01*
X161047619Y-83389285D01*
X161142857Y-83341666D01*
X161285714Y-83341666D01*
X161380952Y-83389285D01*
X161428571Y-83436904D01*
X161476190Y-83532142D01*
X161476190Y-83913095D01*
X160952380Y-83008333D02*
X160952380Y-82389285D01*
X161333333Y-82722619D01*
X161333333Y-82579761D01*
X161380952Y-82484523D01*
X161428571Y-82436904D01*
X161523809Y-82389285D01*
X161761904Y-82389285D01*
X161857142Y-82436904D01*
X161904761Y-82484523D01*
X161952380Y-82579761D01*
X161952380Y-82865476D01*
X161904761Y-82960714D01*
X161857142Y-83008333D01*
X162833333Y-85563380D02*
X162500000Y-85087190D01*
X162261904Y-85563380D02*
X162261904Y-84563380D01*
X162642857Y-84563380D01*
X162738095Y-84611000D01*
X162785714Y-84658619D01*
X162833333Y-84753857D01*
X162833333Y-84896714D01*
X162785714Y-84991952D01*
X162738095Y-85039571D01*
X162642857Y-85087190D01*
X162261904Y-85087190D01*
X163214285Y-84658619D02*
X163261904Y-84611000D01*
X163357142Y-84563380D01*
X163595238Y-84563380D01*
X163690476Y-84611000D01*
X163738095Y-84658619D01*
X163785714Y-84753857D01*
X163785714Y-84849095D01*
X163738095Y-84991952D01*
X163166666Y-85563380D01*
X163785714Y-85563380D01*
X151913380Y-83771666D02*
X151437190Y-84105000D01*
X151913380Y-84343095D02*
X150913380Y-84343095D01*
X150913380Y-83962142D01*
X150961000Y-83866904D01*
X151008619Y-83819285D01*
X151103857Y-83771666D01*
X151246714Y-83771666D01*
X151341952Y-83819285D01*
X151389571Y-83866904D01*
X151437190Y-83962142D01*
X151437190Y-84343095D01*
X151913380Y-82819285D02*
X151913380Y-83390714D01*
X151913380Y-83105000D02*
X150913380Y-83105000D01*
X151056238Y-83200238D01*
X151151476Y-83295476D01*
X151199095Y-83390714D01*
X120951761Y-85735619D02*
X120856523Y-85688000D01*
X120761285Y-85592761D01*
X120618428Y-85449904D01*
X120523190Y-85402285D01*
X120427952Y-85402285D01*
X120475571Y-85640380D02*
X120380333Y-85592761D01*
X120285095Y-85497523D01*
X120237476Y-85307047D01*
X120237476Y-84973714D01*
X120285095Y-84783238D01*
X120380333Y-84688000D01*
X120475571Y-84640380D01*
X120666047Y-84640380D01*
X120761285Y-84688000D01*
X120856523Y-84783238D01*
X120904142Y-84973714D01*
X120904142Y-85307047D01*
X120856523Y-85497523D01*
X120761285Y-85592761D01*
X120666047Y-85640380D01*
X120475571Y-85640380D01*
X121856523Y-85640380D02*
X121285095Y-85640380D01*
X121570809Y-85640380D02*
X121570809Y-84640380D01*
X121475571Y-84783238D01*
X121380333Y-84878476D01*
X121285095Y-84926095D01*
X175517380Y-81353095D02*
X174517380Y-81353095D01*
X174517380Y-81115000D01*
X174565000Y-80972142D01*
X174660238Y-80876904D01*
X174755476Y-80829285D01*
X174945952Y-80781666D01*
X175088809Y-80781666D01*
X175279285Y-80829285D01*
X175374523Y-80876904D01*
X175469761Y-80972142D01*
X175517380Y-81115000D01*
X175517380Y-81353095D01*
X174612619Y-80400714D02*
X174565000Y-80353095D01*
X174517380Y-80257857D01*
X174517380Y-80019761D01*
X174565000Y-79924523D01*
X174612619Y-79876904D01*
X174707857Y-79829285D01*
X174803095Y-79829285D01*
X174945952Y-79876904D01*
X175517380Y-80448333D01*
X175517380Y-79829285D01*
X119711904Y-77452380D02*
X119711904Y-76452380D01*
X119950000Y-76452380D01*
X120092857Y-76500000D01*
X120188095Y-76595238D01*
X120235714Y-76690476D01*
X120283333Y-76880952D01*
X120283333Y-77023809D01*
X120235714Y-77214285D01*
X120188095Y-77309523D01*
X120092857Y-77404761D01*
X119950000Y-77452380D01*
X119711904Y-77452380D01*
X121235714Y-77452380D02*
X120664285Y-77452380D01*
X120950000Y-77452380D02*
X120950000Y-76452380D01*
X120854761Y-76595238D01*
X120759523Y-76690476D01*
X120664285Y-76738095D01*
X161853642Y-75390666D02*
X161901261Y-75438285D01*
X161948880Y-75581142D01*
X161948880Y-75676380D01*
X161901261Y-75819238D01*
X161806023Y-75914476D01*
X161710785Y-75962095D01*
X161520309Y-76009714D01*
X161377452Y-76009714D01*
X161186976Y-75962095D01*
X161091738Y-75914476D01*
X160996500Y-75819238D01*
X160948880Y-75676380D01*
X160948880Y-75581142D01*
X160996500Y-75438285D01*
X161044119Y-75390666D01*
X161044119Y-75009714D02*
X160996500Y-74962095D01*
X160948880Y-74866857D01*
X160948880Y-74628761D01*
X160996500Y-74533523D01*
X161044119Y-74485904D01*
X161139357Y-74438285D01*
X161234595Y-74438285D01*
X161377452Y-74485904D01*
X161948880Y-75057333D01*
X161948880Y-74438285D01*
X161853642Y-79060666D02*
X161901261Y-79108285D01*
X161948880Y-79251142D01*
X161948880Y-79346380D01*
X161901261Y-79489238D01*
X161806023Y-79584476D01*
X161710785Y-79632095D01*
X161520309Y-79679714D01*
X161377452Y-79679714D01*
X161186976Y-79632095D01*
X161091738Y-79584476D01*
X160996500Y-79489238D01*
X160948880Y-79346380D01*
X160948880Y-79251142D01*
X160996500Y-79108285D01*
X161044119Y-79060666D01*
X161948880Y-78108285D02*
X161948880Y-78679714D01*
X161948880Y-78394000D02*
X160948880Y-78394000D01*
X161091738Y-78489238D01*
X161186976Y-78584476D01*
X161234595Y-78679714D01*
X127643047Y-77684571D02*
X127785904Y-77732190D01*
X127833523Y-77779809D01*
X127881142Y-77875047D01*
X127881142Y-78017904D01*
X127833523Y-78113142D01*
X127785904Y-78160761D01*
X127690666Y-78208380D01*
X127309714Y-78208380D01*
X127309714Y-77208380D01*
X127643047Y-77208380D01*
X127738285Y-77256000D01*
X127785904Y-77303619D01*
X127833523Y-77398857D01*
X127833523Y-77494095D01*
X127785904Y-77589333D01*
X127738285Y-77636952D01*
X127643047Y-77684571D01*
X127309714Y-77684571D01*
X128214476Y-77208380D02*
X128881142Y-77208380D01*
X128214476Y-78208380D01*
X128881142Y-78208380D01*
X129785904Y-78208380D02*
X129214476Y-78208380D01*
X129500190Y-78208380D02*
X129500190Y-77208380D01*
X129404952Y-77351238D01*
X129309714Y-77446476D01*
X129214476Y-77494095D01*
X130141428Y-74580952D02*
X130141428Y-73819047D01*
X130522380Y-74200000D02*
X129760476Y-74200000D01*
M02*
